<svg xmlns="http://www.w3.org/2000/svg" width="1200" height="630" viewBox="0 0 1200 630" role="img" aria-labelledby="title desc">
  <title id="title">Trading Assistant Public Preview</title>
  <desc id="desc">Homepage preview image showing clear coach-facing entry points, START HERE lanes, a workflow chart, and added emphasis on behavior log, coaching path, and exports.</desc>
  <defs>
    <linearGradient id="bg" x1="0" y1="0" x2="1" y2="1">
      <stop offset="0%" stop-color="#0c1218"/>
      <stop offset="100%" stop-color="#101821"/>
    </linearGradient>
    <linearGradient id="titleGrad" x1="0" y1="0" x2="1" y2="0">
      <stop offset="0%" stop-color="#3fb950"/>
      <stop offset="55%" stop-color="#7cc2ff"/>
      <stop offset="100%" stop-color="#bc8cff"/>
    </linearGradient>
  </defs>
  <rect width="1200" height="630" fill="url(#bg)"/>
  <circle cx="140" cy="88" r="170" fill="#7cc2ff" opacity="0.08"/>
  <circle cx="1088" cy="74" r="148" fill="#bc8cff" opacity="0.07"/>
  <rect x="54" y="46" width="1092" height="538" rx="36" fill="#121b24" fill-opacity="0.94" stroke="#34404d"/>
  <rect x="648" y="52" width="334" height="36" rx="18" fill="#17222d" stroke="#385065"/>
  <text x="815" y="75" fill="#99a4af" font-family="Arial, sans-serif" font-size="14.5" font-weight="700" letter-spacing="1.1" text-anchor="middle">PUBLIC PREVIEW LANDING PAGE</text>
  <text x="96" y="190" fill="url(#titleGrad)" font-family="Arial, sans-serif" font-size="62" font-weight="800">Trading Assistant</text>
  <text x="96" y="230" fill="#d8dee4" font-family="Arial, sans-serif" font-size="18.5">A public-facing hub for clear entry points for coaches to access:</text>
  <text x="96" y="334" fill="#99a4af" font-family="Arial, sans-serif" font-size="16.2">
    <tspan x="96" dy="0">pre-market planning, post-session reviews, patterns, progression, and</tspan>
    <tspan x="96" dy="24">SmartTraderAI exports in a clearer navigational system</tspan>
  </text>
  <rect x="96" y="386" width="148" height="36" rx="18" fill="#182431" stroke="#365067"/>
  <rect x="256" y="386" width="148" height="36" rx="18" fill="#182431" stroke="#365067"/>
  <rect x="416" y="386" width="146" height="36" rx="18" fill="#182431" stroke="#365067"/>
  <text x="170" y="409" fill="#d8dee4" font-family="Arial, sans-serif" font-size="17" text-anchor="middle">Daily setup</text>
  <text x="330" y="409" fill="#d8dee4" font-family="Arial, sans-serif" font-size="17" text-anchor="middle">Review lane</text>
  <text x="489" y="409" fill="#d8dee4" font-family="Arial, sans-serif" font-size="17" text-anchor="middle">Setup docs</text>
  <rect x="96" y="446" width="142" height="38" rx="19" fill="#14211d" stroke="#3fb950"/>
  <rect x="252" y="446" width="168" height="38" rx="19" fill="#152130" stroke="#7cc2ff"/>
  <rect x="434" y="446" width="128" height="38" rx="19" fill="#21182d" stroke="#bc8cff"/>
  <text x="167" y="470" fill="#b9f5c4" font-family="Arial, sans-serif" font-size="17" font-weight="700" text-anchor="middle">behavior log</text>
  <text x="336" y="470" fill="#d5e9ff" font-family="Arial, sans-serif" font-size="17" font-weight="700" text-anchor="middle">coaching path</text>
  <text x="498" y="470" fill="#ead7ff" font-family="Arial, sans-serif" font-size="17" font-weight="700" text-anchor="middle">exports</text>
  <rect x="648" y="92" width="420" height="360" rx="28" fill="#0f1720" stroke="#34404d"/>
  <rect x="674" y="116" width="368" height="186" rx="18" fill="#111a23" stroke="#334150"/>
  <rect x="674" y="318" width="368" height="62" rx="16" fill="#111a23" stroke="#334150"/>
  <rect x="674" y="392" width="368" height="40" rx="16" fill="#111a23" stroke="#334150"/>
  <line x1="674" y1="162" x2="1042" y2="162" stroke="#334150"/>
  <line x1="674" y1="210" x2="1042" y2="210" stroke="#334150"/>
  <line x1="674" y1="258" x2="1042" y2="258" stroke="#334150"/>
  <line x1="674" y1="349" x2="1042" y2="349" stroke="#334150"/>
  <line x1="706" y1="408" x2="1042" y2="408" stroke="#334150" stroke-dasharray="4 4"/>
  <rect x="696" y="268" width="18" height="22" rx="2" fill="#3fb950" opacity="0.42"/>
  <rect x="730" y="260" width="18" height="30" rx="2" fill="#3fb950" opacity="0.42"/>
  <rect x="764" y="250" width="18" height="40" rx="2" fill="#f85149" opacity="0.42"/>
  <rect x="798" y="254" width="18" height="36" rx="2" fill="#f85149" opacity="0.42"/>
  <rect x="832" y="244" width="18" height="46" rx="2" fill="#3fb950" opacity="0.42"/>
  <rect x="866" y="234" width="18" height="56" rx="2" fill="#3fb950" opacity="0.42"/>
  <rect x="900" y="248" width="18" height="42" rx="2" fill="#3fb950" opacity="0.42"/>
  <rect x="934" y="258" width="18" height="32" rx="2" fill="#f85149" opacity="0.42"/>
  <rect x="968" y="246" width="18" height="44" rx="2" fill="#3fb950" opacity="0.42"/>
  <rect x="1002" y="252" width="18" height="38" rx="2" fill="#3fb950" opacity="0.42"/>
  <line x1="705" y1="248" x2="705" y2="196" stroke="#3fb950" stroke-width="2"/>
  <rect x="696" y="208" width="18" height="30" rx="2" fill="#3fb950"/>
  <line x1="739" y1="238" x2="739" y2="176" stroke="#3fb950" stroke-width="2"/>
  <rect x="730" y="186" width="18" height="44" rx="2" fill="#3fb950"/>
  <line x1="773" y1="242" x2="773" y2="150" stroke="#f85149" stroke-width="2"/>
  <rect x="764" y="162" width="18" height="58" rx="2" fill="#f85149"/>
  <line x1="807" y1="252" x2="807" y2="178" stroke="#f85149" stroke-width="2"/>
  <rect x="798" y="188" width="18" height="48" rx="2" fill="#f85149"/>
  <line x1="841" y1="262" x2="841" y2="186" stroke="#3fb950" stroke-width="2"/>
  <rect x="832" y="194" width="18" height="44" rx="2" fill="#3fb950"/>
  <line x1="875" y1="240" x2="875" y2="146" stroke="#3fb950" stroke-width="2"/>
  <rect x="866" y="156" width="18" height="64" rx="2" fill="#3fb950"/>
  <line x1="909" y1="212" x2="909" y2="132" stroke="#3fb950" stroke-width="2"/>
  <rect x="900" y="142" width="18" height="56" rx="2" fill="#3fb950"/>
  <line x1="943" y1="224" x2="943" y2="146" stroke="#f85149" stroke-width="2"/>
  <rect x="934" y="156" width="18" height="48" rx="2" fill="#f85149"/>
  <line x1="977" y1="206" x2="977" y2="118" stroke="#3fb950" stroke-width="2"/>
  <rect x="968" y="128" width="18" height="62" rx="2" fill="#3fb950"/>
  <line x1="1011" y1="190" x2="1011" y2="108" stroke="#3fb950" stroke-width="2"/>
  <rect x="1002" y="118" width="18" height="54" rx="2" fill="#3fb950"/>
  <polyline points="684,252 718,236 752,220 786,212 820,220 854,228 888,208 922,182 956,162 990,146 1024,132" fill="none" stroke="#7cc2ff" stroke-width="4"/>
  <polyline points="684,268 718,258 752,244 786,236 820,238 854,242 888,232 922,214 956,198 990,184 1024,168" fill="none" stroke="#3fb950" stroke-width="4" opacity="0.78"/>
  <rect x="698" y="350" width="18" height="14" rx="2" fill="#f85149" opacity="0.44"/>
  <rect x="736" y="346" width="18" height="18" rx="2" fill="#f85149" opacity="0.44"/>
  <rect x="774" y="342" width="18" height="22" rx="2" fill="#3fb950" opacity="0.44"/>
  <rect x="812" y="336" width="18" height="28" rx="2" fill="#3fb950" opacity="0.44"/>
  <rect x="850" y="332" width="18" height="32" rx="2" fill="#3fb950" opacity="0.44"/>
  <rect x="888" y="338" width="18" height="26" rx="2" fill="#3fb950" opacity="0.44"/>
  <rect x="926" y="346" width="18" height="18" rx="2" fill="#f85149" opacity="0.44"/>
  <rect x="964" y="342" width="18" height="22" rx="2" fill="#3fb950" opacity="0.44"/>
  <rect x="1002" y="336" width="18" height="28" rx="2" fill="#3fb950" opacity="0.44"/>
  <polyline points="698,360 736,356 774,350 812,344 850,340 888,344 926,350 964,346 1002,340" fill="none" stroke="#7cc2ff" stroke-width="3"/>
  <polyline points="698,356 736,354 774,352 812,348 850,344 888,346 926,348 964,346 1002,344" fill="none" stroke="#e3b341" stroke-width="3" opacity="0.9"/>
  <line x1="728" y1="398" x2="1040" y2="398" stroke="#e3b341" stroke-opacity="0.28" stroke-dasharray="4 4"/>
  <line x1="728" y1="418" x2="1040" y2="418" stroke="#3fb950" stroke-opacity="0.25" stroke-dasharray="4 4"/>
  <polyline points="698,420 736,416 774,410 812,414 850,422 888,426 926,418 964,406 1002,400" fill="none" stroke="#bc8cff" stroke-width="3.5"/>
</svg>