<svg xmlns="http://www.w3.org/2000/svg" width="1200" height="630" viewBox="0 0 1200 630" role="img" aria-labelledby="title desc">
  <title id="title">Trading Assistant 404 preview companion</title>
  <desc id="desc">Editable SVG companion for the accepted 404 preview PNG. It recreates the main composition with live text, grouped vector shapes, and a chart adapted from 404.html so Christopher can manually edit the source later without relying on a raster trace.</desc>
  <defs>
    <linearGradient id="bg" x1="0" y1="0" x2="1" y2="1">
      <stop offset="0%" stop-color="#0c1218"/>
      <stop offset="100%" stop-color="#101821"/>
    </linearGradient>
    <linearGradient id="cardGlow" x1="96" y1="58" x2="1104" y2="572" gradientUnits="userSpaceOnUse">
      <stop offset="0%" stop-color="#152130"/>
      <stop offset="100%" stop-color="#0f1821"/>
    </linearGradient>
    <linearGradient id="titleGrad" x1="84" y1="150" x2="386" y2="150" gradientUnits="userSpaceOnUse">
      <stop offset="0%" stop-color="#3fb950"/>
      <stop offset="52%" stop-color="#7cc2ff"/>
      <stop offset="100%" stop-color="#bc8cff"/>
    </linearGradient>
    <filter id="softGlow" x="-30%" y="-30%" width="160%" height="160%">
      <feGaussianBlur stdDeviation="28"/>
    </filter>
  </defs>

  <rect width="1200" height="630" fill="url(#bg)"/>
  <circle cx="174" cy="84" r="168" fill="#7cc2ff" opacity="0.08" filter="url(#softGlow)"/>
  <circle cx="1088" cy="92" r="152" fill="#bc8cff" opacity="0.07" filter="url(#softGlow)"/>
  <circle cx="956" cy="512" r="156" fill="#3fb950" opacity="0.06" filter="url(#softGlow)"/>

  <g id="frame">
    <rect id="card" x="48" y="46" width="1104" height="538" rx="34" fill="url(#cardGlow)" stroke="#34404d" stroke-width="2"/>
    <rect x="70" y="68" width="1060" height="494" rx="28" fill="none" stroke="#1a2632"/>
  </g>

  <g id="headline" font-family="Arial, sans-serif">
    <text x="255" y="98" fill="#99a4af" font-size="17" font-weight="700" letter-spacing="4">TRADING · ASSISTANT</text>
    <text x="315" y="188" fill="url(#titleGrad)" font-size="88" font-weight="800">404</text>
    <text x="260" y="225" fill="#e3b341" font-family="SFMono-Regular, Consolas, monospace" font-size="20" font-weight="700" letter-spacing="2.4">oops... no worries</text>
  </g>

  <g id="chart-panel">
    <rect x="100" y="242" width="580" height="206" rx="26" fill="#0f1720" stroke="#334150" stroke-width="1.5"/>
    <g id="chart" transform="translate(116 258) scale(1.06 0.98)">
      <line x1="0" y1="45" x2="520" y2="45" stroke="rgba(139,148,158,0.14)" stroke-width="1"/>
      <line x1="0" y1="90" x2="520" y2="90" stroke="rgba(139,148,158,0.14)" stroke-width="1"/>
      <line x1="0" y1="135" x2="520" y2="135" stroke="rgba(139,148,158,0.14)" stroke-width="1"/>
      <rect x="60" y="60" width="50" height="25" rx="2" fill="#3fb950" opacity="0.14"/>

      <line x1="30" y1="112" x2="30" y2="56" stroke="#3fb950" stroke-width="1.75" stroke-linecap="round"/>
      <rect x="24" y="72" width="12" height="28" rx="1.2" fill="#3fb950"/>
      <line x1="55" y1="102" x2="55" y2="46" stroke="#3fb950" stroke-width="1.75" stroke-linecap="round"/>
      <rect x="49" y="60" width="12" height="29" rx="1.2" fill="#3fb950"/>
      <line x1="80" y1="93" x2="80" y2="38" stroke="#3fb950" stroke-width="1.75" stroke-linecap="round"/>
      <rect x="74" y="49" width="12" height="31" rx="1.2" fill="#3fb950"/>
      <line x1="105" y1="34" x2="105" y2="88" stroke="#f85149" stroke-width="1.75" stroke-linecap="round"/>
      <rect x="99" y="46" width="12" height="24" rx="1.2" fill="#f85149"/>

      <rect x="118" y="0" width="60" height="180" fill="#e3b341" opacity="0.11"/>
      <line x1="118" y1="0" x2="118" y2="180" stroke="#e3b341" stroke-width="1" stroke-dasharray="4 3" opacity="0.6"/>
      <line x1="178" y1="0" x2="178" y2="180" stroke="#e3b341" stroke-width="1" stroke-dasharray="4 3" opacity="0.6"/>
      <text x="123" y="14" fill="#e3b341" font-family="SFMono-Regular, Consolas, monospace" font-size="11" font-weight="700">404</text>
      <text x="121" y="28" fill="#e3b341" font-family="SFMono-Regular, Consolas, monospace" font-size="8.75">page moved</text>

      <line x1="200" y1="54" x2="200" y2="122" stroke="#f85149" stroke-width="1.75" stroke-linecap="round"/>
      <rect x="194" y="68" width="12" height="34" rx="1.2" fill="#f85149"/>
      <line x1="225" y1="82" x2="225" y2="142" stroke="#f85149" stroke-width="1.75" stroke-linecap="round"/>
      <rect x="219" y="96" width="12" height="26" rx="1.2" fill="#f85149"/>
      <line x1="250" y1="102" x2="250" y2="149" stroke="#8b949e" stroke-width="1.75" stroke-linecap="round"/>
      <rect x="244" y="118" width="12" height="10" rx="1.2" fill="#8b949e"/>
      <line x1="275" y1="92" x2="275" y2="146" stroke="#3fb950" stroke-width="1.75" stroke-linecap="round"/>
      <rect x="269" y="104" width="12" height="28" rx="1.2" fill="#3fb950"/>
      <line x1="300" y1="84" x2="300" y2="132" stroke="#3fb950" stroke-width="1.75" stroke-linecap="round"/>
      <rect x="294" y="92" width="12" height="24" rx="1.2" fill="#3fb950"/>
      <line x1="325" y1="72" x2="325" y2="118" stroke="#f85149" stroke-width="1.75" stroke-linecap="round"/>
      <rect x="319" y="86" width="12" height="18" rx="1.2" fill="#f85149"/>
      <line x1="350" y1="58" x2="350" y2="110" stroke="#3fb950" stroke-width="1.75" stroke-linecap="round"/>
      <rect x="344" y="73" width="12" height="26" rx="1.2" fill="#3fb950"/>
      <line x1="375" y1="52" x2="375" y2="98" stroke="#3fb950" stroke-width="1.75" stroke-linecap="round"/>
      <rect x="369" y="64" width="12" height="20" rx="1.2" fill="#3fb950"/>
      <line x1="400" y1="48" x2="400" y2="90" stroke="#f85149" stroke-width="1.75" stroke-linecap="round"/>
      <rect x="394" y="58" width="12" height="16" rx="1.2" fill="#f85149"/>
      <line x1="425" y1="40" x2="425" y2="84" stroke="#3fb950" stroke-width="1.75" stroke-linecap="round"/>
      <rect x="419" y="50" width="12" height="22" rx="1.2" fill="#3fb950"/>
      <line x1="450" y1="34" x2="450" y2="74" stroke="#3fb950" stroke-width="1.75" stroke-linecap="round"/>
      <rect x="444" y="42" width="12" height="20" rx="1.2" fill="#3fb950"/>

      <path d="M0,118 C22,106 48,88 78,66 C96,54 116,56 138,64 C160,72 182,82 202,90 C220,96 236,112 252,122 C268,128 286,122 304,112 C322,102 340,90 360,82 C378,74 398,68 420,58 C438,50 460,44 520,34" fill="none" stroke="#7cc2ff" stroke-width="4" stroke-linecap="round" stroke-linejoin="round"/>
      <path d="M0,126 C24,120 50,108 80,92 C102,80 124,74 150,76 C172,78 194,84 218,94 C236,102 252,110 272,114 C292,116 312,110 334,102 C356,94 378,86 400,78 C422,70 446,62 520,50" fill="none" stroke="#3fb950" stroke-width="4" stroke-linecap="round" stroke-linejoin="round" opacity="0.78"/>

      <rect x="24" y="156" width="12" height="16" rx="1" fill="#3fb950" opacity="0.4"/>
      <rect x="49" y="152" width="12" height="20" rx="1" fill="#3fb950" opacity="0.4"/>
      <rect x="74" y="148" width="12" height="24" rx="1" fill="#3fb950" opacity="0.4"/>
      <rect x="99" y="160" width="12" height="12" rx="1" fill="#f85149" opacity="0.4"/>
      <rect x="194" y="146" width="12" height="26" rx="1" fill="#f85149" opacity="0.4"/>
      <rect x="219" y="152" width="12" height="20" rx="1" fill="#f85149" opacity="0.4"/>
      <rect x="244" y="162" width="12" height="10" rx="1" fill="#8b949e" opacity="0.4"/>
      <rect x="269" y="154" width="12" height="18" rx="1" fill="#3fb950" opacity="0.4"/>
      <rect x="294" y="152" width="12" height="20" rx="1" fill="#3fb950" opacity="0.4"/>
      <rect x="319" y="157" width="12" height="15" rx="1" fill="#f85149" opacity="0.4"/>
      <rect x="344" y="150" width="12" height="22" rx="1" fill="#3fb950" opacity="0.4"/>
      <rect x="369" y="154" width="12" height="18" rx="1" fill="#3fb950" opacity="0.4"/>
      <rect x="394" y="156" width="12" height="16" rx="1" fill="#f85149" opacity="0.4"/>
      <rect x="419" y="150" width="12" height="22" rx="1" fill="#3fb950" opacity="0.4"/>
      <rect x="444" y="148" width="12" height="24" rx="1" fill="#3fb950" opacity="0.4"/>
    </g>
  </g>

  <g id="left-copy" font-family="Arial, sans-serif">
    <text x="140" y="490" fill="#d8dee4" font-size="32" font-weight="700">page moved during a restructure</text>
    <rect x="172" y="510" width="430" height="34" rx="17" fill="#181f2a" stroke="#e3b341" stroke-opacity="0.56"/>
    <text x="387" y="532" fill="#e8c66c" font-size="18.5" font-weight="700" text-anchor="middle">match your legacy link to the recovery link</text>
  </g>

  <g id="right-column" transform="translate(692 84)">
    <rect x="55" y="10" width="300" height="36" rx="18" fill="#16241d" stroke="#3fb950" stroke-opacity="0.7"/>
    <circle cx="85" cy="28" r="5" fill="#3fb950"/>
    <text x="105" y="34" fill="#b9f5c4" font-family="Arial, sans-serif" font-size="16" font-weight="800" letter-spacing="1.4">RECOVERY SIGNAL LIVE</text>

    <line x1="35" y1="76" x2="376" y2="76" stroke="#334150" stroke-dasharray="5 5" opacity="0.7"/>
    <text x="40" y="130" fill="#d8dee4" font-family="Arial, sans-serif" font-size="19.5" font-weight="700">The public structure is cleaner now</text>
    <text x="60" y="170" fill="#99a4af" font-family="Arial, sans-serif" font-size="17.5">but the familiar sections are still there</text>

    <line x1="35" y1="214" x2="376" y2="214" stroke="#334150" opacity="0.78"/>
    <text x="110" y="280" fill="#99a4af" font-family="Arial, sans-serif" font-size="16" font-weight="800" letter-spacing="3">RECOVERY-FIRST</text>
    <text x="60" y="330" fill="#d8dee4" font-family="Arial, sans-serif" font-size="26" font-weight="800" letter-spacing="1.4">LINKS STILL IN TACT</text>

    <line x1="35" y1="380" x2="376" y2="380" stroke="#334150" stroke-dasharray="5 5" opacity="0.7"/>
    <rect x="20" y="420" width="376" height="36" rx="18" fill="#20182a" stroke="#bc8cff" stroke-opacity="0.65"/>
    <text x="208" y="443" fill="#ead7ff" font-family="SFMono-Regular, Consolas, monospace" font-size="17" font-weight="700" text-anchor="middle">smarttrader-ai/ → YYYY/MM-Mon/</text>
  </g>
</svg>